<svg width="71" height="30" viewBox="0 0 71 30" fill="none" xmlns="http://www.w3.org/2000/svg">
<path d="M32.5519 7.63281V13.7123H29.4537V7.63281C29.4022 6.72567 29.0136 6.25948 28.2866 6.23391H28.1127C27.3274 6.25948 26.9353 6.80283 26.9353 7.86457V13.7123H23.8479V7.86457C23.8479 5.06619 25.2691 3.58966 28.1127 3.43506H28.2866C29.4186 3.49963 30.3257 3.76995 31.0079 4.24576C31.6833 3.76995 32.587 3.49963 33.7196 3.43506H33.8929C36.7366 3.58966 38.1582 5.06619 38.1582 7.86457V13.7123H35.0703V7.86457C35.0703 6.80283 34.6777 6.25948 33.8929 6.23391H33.7196C32.992 6.25948 32.6034 6.72567 32.5519 7.63281Z" fill="#09B44D"/>
<path d="M44.0733 6.2242C43.6422 6.2242 43.237 6.33361 42.858 6.55231C42.6258 6.69395 42.4008 6.89327 42.1822 7.15062H45.9645C45.7458 6.89327 45.521 6.69395 45.2893 6.55231C44.9096 6.33361 44.5045 6.2242 44.0733 6.2242ZM49.0627 6.61012C49.3516 7.25992 49.4967 7.95454 49.4967 8.69448V8.78117C49.4967 8.81351 49.4932 8.84861 49.4871 8.88773L49.4678 9.05148H48.2712V9.07076H41.6319C41.709 9.61127 41.9441 10.0776 42.3368 10.4701C42.832 10.9591 43.4109 11.2033 44.0733 11.2033C44.7425 11.2033 45.3215 10.9591 45.8099 10.4701L45.8298 10.4504L45.8586 10.4123L45.8875 10.383L45.9068 10.354L47.5669 12.728C47.0904 13.1139 46.6083 13.4068 46.1188 13.6062C45.4632 13.8635 44.7812 13.992 44.0733 13.992C43.1153 13.992 42.2235 13.7637 41.4002 13.307C40.5578 12.8442 39.8919 12.2102 39.4031 11.4062C38.901 10.6021 38.6505 9.69795 38.6505 8.69448C38.6505 7.94158 38.7952 7.24695 39.0845 6.61012C39.3741 5.9671 39.7731 5.40722 40.2812 4.93129C40.7957 4.44227 41.3748 4.07242 42.0178 3.82137C42.6807 3.56403 43.3657 3.43546 44.0733 3.43546C44.7812 3.43546 45.4632 3.56403 46.1188 3.82137C46.7692 4.07242 47.3511 4.43894 47.8655 4.92165C48.3743 5.3908 48.7732 5.9539 49.0627 6.61012Z" fill="#09B44D"/>
<path d="M53.4141 7.45923C53.1763 7.83872 53.0572 8.25411 53.0572 8.704C53.0572 9.38626 53.3146 9.97481 53.829 10.47C54.3378 10.959 54.9389 11.2032 55.634 11.2032C56.335 11.2032 56.9401 10.959 57.4478 10.47C57.9627 9.97481 58.2199 9.38626 58.2199 8.704C58.2199 8.25411 58.1005 7.83872 57.8631 7.45923C57.6251 7.08022 57.3066 6.77769 56.9078 6.55221C56.5156 6.33339 56.0908 6.22399 55.634 6.22399C55.1898 6.22399 54.7689 6.33339 54.3701 6.55221C53.9707 6.77769 53.6522 7.08022 53.4141 7.45923ZM58.2297 13.4135C58.0239 13.5035 57.8728 13.564 57.7757 13.5965C57.0941 13.8604 56.3797 13.9919 55.634 13.9919C54.65 13.9919 53.7201 13.7636 52.8454 13.3069C51.97 12.8441 51.2754 12.2134 50.7603 11.4157C50.2403 10.6049 49.9796 9.70176 49.9796 8.704C49.9796 7.95145 50.1303 7.25018 50.4324 6.60038C50.7349 5.95713 51.1501 5.39736 51.6777 4.92155C52.1988 4.4455 52.8033 4.08182 53.4919 3.83089C54.1802 3.56724 54.8941 3.43524 55.634 3.43524C56.3672 3.43524 57.0817 3.5639 57.7757 3.82125C58.471 4.07896 59.0756 4.4455 59.5899 4.92155C60.131 5.41044 60.5493 5.97033 60.8444 6.60038C61.147 7.25018 61.2981 7.95145 61.2981 8.704L61.2885 13.732L58.2297 13.703V13.4135Z" fill="#09B44D"/>
<path d="M61.7808 0.00961605L64.8596 0V13.6831L61.7808 13.7223V0.00961605Z" fill="#09B44D"/>
<path d="M34.6932 21.1711C35.202 21.6668 35.7873 21.9139 36.4496 21.9139C37.1187 21.9139 37.7069 21.6668 38.2156 21.1711C38.7176 20.6822 38.968 20.0934 38.968 19.4049C38.968 18.9675 38.8525 18.5557 38.6207 18.1698C38.3889 17.784 38.0808 17.4814 37.6943 17.2627C37.3023 17.0441 36.887 16.9347 36.4496 16.9347C36.0121 16.9347 35.6037 17.0441 35.224 17.2627C34.8382 17.4814 34.526 17.784 34.2881 18.1698C34.0563 18.5557 33.9408 18.9675 33.9408 19.4049C33.9408 20.0934 34.1911 20.6822 34.6932 21.1711ZM41.6894 19.4629L41.6797 24.693V25.4073C41.6797 26.6742 41.2292 27.7581 40.3284 28.6589C39.9101 29.0772 39.351 29.4085 38.6496 29.6532C37.9935 29.8845 37.3437 30 36.7007 30H36.16C34.6932 29.9684 33.5254 29.5212 32.6569 28.6589C32.0717 28.0608 31.718 27.5367 31.5956 27.0862L34.539 25.3784C34.5709 25.8861 34.7742 26.3173 35.1469 26.6715C35.5199 27.0249 35.9634 27.2022 36.4785 27.2022C36.8836 27.2022 37.2541 27.0862 37.5878 26.8544C37.9164 26.6295 38.1515 26.3399 38.2933 25.9865L38.3024 25.948L38.3215 25.8991C38.3347 25.8545 38.347 25.8091 38.3607 25.7643C38.3862 25.6873 38.402 25.6102 38.4089 25.5326V25.5037L38.4179 25.4748L38.4281 25.4362V25.3784H38.4372V24.3649L38.3607 24.404L38.283 24.4323C37.6394 24.6963 36.9645 24.8283 36.2568 24.8283C35.3175 24.8283 34.4393 24.5932 33.6218 24.1235C32.8053 23.6668 32.1492 23.0271 31.654 22.2034C31.1582 21.3801 30.9106 20.4634 30.9106 19.4532C30.9106 18.6877 31.0551 17.9801 31.3452 17.3301C31.6211 16.6871 32.0138 16.1143 32.5219 15.613C33.0171 15.1369 33.59 14.7671 34.2398 14.5029C34.8961 14.2394 35.5679 14.1074 36.2568 14.1074C37.453 14.1074 38.3414 14.2616 38.9199 14.5702C40.7664 15.3619 41.6894 16.9926 41.6894 19.4629Z" fill="#09B44D"/>
<path d="M47.5951 16.8961C47.164 16.8961 46.7584 17.0055 46.3792 17.2242C46.1476 17.3658 45.9226 17.5654 45.7033 17.8225H49.4863C49.2676 17.5654 49.0428 17.3658 48.8104 17.2242C48.4314 17.0055 48.0258 16.8961 47.5951 16.8961ZM52.5838 17.282C52.8729 17.9319 53.018 18.6265 53.018 19.3663V19.4532C53.018 19.4854 53.0145 19.5206 53.0088 19.5596L52.9891 19.7235H51.7924V19.7427H45.1532C45.2308 20.2831 45.4653 20.7495 45.858 21.1421C46.3538 21.6311 46.9322 21.8753 47.5951 21.8753C48.2643 21.8753 48.8428 21.6311 49.3317 21.1421L49.3516 21.1222L49.3799 21.0844L49.4088 21.0548L49.4281 21.0259L51.0881 23.4C50.6116 23.7858 50.1295 24.0788 49.6406 24.2782C48.9845 24.5353 48.3028 24.664 47.5951 24.664C46.6365 24.664 45.7452 24.4356 44.9219 23.979C44.0789 23.5162 43.4132 22.8821 42.9248 22.078C42.4228 21.2741 42.1718 20.3698 42.1718 19.3663C42.1718 18.6134 42.3169 17.9188 42.6058 17.282C42.8953 16.639 43.2942 16.0791 43.803 15.6033C44.3175 15.1141 44.8959 14.7443 45.5396 14.4932C46.2019 14.236 46.8874 14.1075 47.5951 14.1075C48.3028 14.1075 48.9845 14.236 49.6406 14.4932C50.2904 14.7443 50.8723 15.1108 51.3873 15.5936C51.8955 16.0627 52.2945 16.626 52.5838 17.282Z" fill="#09B44D"/>
<path d="M56.9359 18.1313C56.698 18.5108 56.579 18.926 56.579 19.3759C56.579 20.0582 56.8363 20.6468 57.3508 21.1419C57.859 21.6309 58.4607 21.8751 59.1553 21.8751C59.8562 21.8751 60.4612 21.6309 60.9695 21.1419C61.484 20.6468 61.7417 20.0582 61.7417 19.3759C61.7417 18.926 61.6223 18.5108 61.3849 18.1313C61.1468 17.7521 60.8279 17.4496 60.4289 17.2241C60.0369 17.0054 59.6126 16.896 59.1553 16.896C58.7115 16.896 58.2902 17.0054 57.8918 17.2241C57.4924 17.4496 57.174 17.7521 56.9359 18.1313ZM61.7513 24.0854C61.5451 24.1755 61.3938 24.2362 61.2975 24.2684C60.6154 24.5325 59.9015 24.6638 59.1553 24.6638C58.1711 24.6638 57.2414 24.4355 56.3666 23.979C55.4917 23.516 54.7972 22.8853 54.282 22.0876C53.7609 21.2769 53.5007 20.3738 53.5007 19.3759C53.5007 18.6235 53.6515 17.9221 53.9541 17.2723C54.2567 16.6293 54.6714 16.0694 55.1995 15.5934C55.7206 15.1176 56.3246 14.7539 57.0129 14.5028C57.7014 14.2393 58.4153 14.1074 59.1553 14.1074C59.889 14.1074 60.6029 14.2358 61.2975 14.4932C61.9927 14.751 62.5966 15.1176 63.1117 15.5934C63.6523 16.0823 64.0703 16.6422 64.3662 17.2723C64.6687 17.9221 64.8199 18.6235 64.8199 19.3759L64.8103 24.4039L61.7513 24.375V24.0854Z" fill="#09B44D"/>
<path d="M70.368 17.0696C70.2076 16.9602 69.9986 16.8997 69.7409 16.8867H69.5674C68.7823 16.9183 68.3901 17.4656 68.3901 18.5269V24.3746H65.3022V18.5269C65.3022 15.7155 66.7237 14.2389 69.5674 14.0973H69.7409C69.9532 14.1042 70.1623 14.1234 70.368 14.1558V17.0696Z" fill="#09B44D"/>
<path d="M22.2565 15.2526C22.2565 21.3989 17.2739 26.3809 11.1282 26.3809C4.98193 26.3809 0 21.3989 0 15.2526C0 9.1064 4.98193 4.12436 11.1282 4.12436C17.2739 4.12436 22.2565 9.1064 22.2565 15.2526Z" fill="#86EE4D"/>
<path d="M19.1804 15.2526C19.1804 19.6997 15.5752 23.305 11.1281 23.305C6.68097 23.305 3.07593 19.6997 3.07593 15.2526C3.07593 10.8054 6.68097 7.20029 11.1281 7.20029C15.5752 7.20029 19.1804 10.8054 19.1804 15.2526Z" fill="#09B44D"/>
<path d="M16.0815 14.5142C15.9659 14.3708 15.8407 14.2366 15.7272 14.0958C14.394 12.443 11.4494 10.6058 11.4494 10.6058L10.5963 11.2942L14.7192 16.3173L13.8267 17.0373L9.35141 12.2983L8.44022 13.0334L8.42904 13.0424L12.1996 18.3498L11.3064 19.0704L7.18332 14.0473L6.33017 14.7355C6.33017 14.7355 7.58861 17.9326 8.92186 19.5856C9.03543 19.7264 9.14008 19.877 9.25568 20.0204C10.5523 21.6279 12.1394 22.7294 13.6296 23.2006C15.9633 23.8518 17.0322 24.8993 18.0076 26.2815L19.2314 28.9888C20.0753 30.0348 21.5283 30.2627 22.4772 29.4974C23.4258 28.732 23.5105 27.2639 22.6666 26.2178L20.3481 24.3936C19.2037 23.1478 18.4053 21.8804 18.2634 19.4626C18.1189 17.9059 17.3782 16.1217 16.0815 14.5142Z" fill="white"/>
</svg>
